<svg xmlns="http://www.w3.org/2000/svg" viewBox="0 0 170 170" width="170" height="170">
  <!-- Facebook / Instagram Profile Picture — 170x170 -->
  <defs>
    <linearGradient id="mark" x1="0" y1="0" x2="1" y2="1">
      <stop offset="0%" stop-color="#64B5F6"/><stop offset="100%" stop-color="#7CC444"/>
    </linearGradient>
    <radialGradient id="ga" cx="30%" cy="25%" r="65%">
      <stop offset="0%" stop-color="#FFFFFF" stop-opacity="0.22"/><stop offset="25%" stop-color="#64B5F6" stop-opacity="0.14"/>
      <stop offset="65%" stop-color="#7CC444" stop-opacity="0.06"/><stop offset="100%" stop-color="#7CC444" stop-opacity="0.02"/>
    </radialGradient>
  </defs>
  <rect width="170" height="170" rx="85" fill="url(#mark)"/>

  <!-- Glass bubbles -->
  <circle cx="132" cy="30" r="18" fill="url(#ga)" stroke="#FFFFFF" stroke-width="1" stroke-opacity="0.3"/>
  <ellipse cx="126" cy="22" rx="5" ry="3.5" fill="#FFFFFF" opacity="0.2" transform="rotate(-18,126,22)"/>
  <circle cx="30" cy="130" r="15" fill="url(#ga)" stroke="#FFFFFF" stroke-width="0.8" stroke-opacity="0.25"/>
  <circle cx="145" cy="120" r="10" fill="url(#ga)" stroke="#FFFFFF" stroke-width="0.7" stroke-opacity="0.2"/>
  <circle cx="25" cy="40" r="12" fill="url(#ga)" stroke="#FFFFFF" stroke-width="0.7" stroke-opacity="0.2"/>

  <!-- Washer icon -->
  <g transform="translate(30,22) scale(0.64)">
    <rect x="20" y="12" width="136" height="160" rx="16" fill="none" stroke="#FFFFFF" stroke-width="3.5" stroke-linecap="round" stroke-linejoin="round" opacity="0.95"/>
    <line x1="20" y1="44" x2="156" y2="44" stroke="#FFFFFF" stroke-width="2.5" stroke-linecap="round" opacity="0.8"/>
    <circle cx="52" cy="29" r="5" fill="none" stroke="#FFFFFF" stroke-width="2.2" opacity="0.7"/>
    <circle cx="88" cy="29" r="5" fill="none" stroke="#FFFFFF" stroke-width="2.2" opacity="0.7"/>
    <circle cx="124" cy="29" r="5" fill="none" stroke="#FFFFFF" stroke-width="2.2" opacity="0.7"/>
    <circle cx="88" cy="110" r="52" fill="none" stroke="#FFFFFF" stroke-width="3.5" stroke-linecap="round" opacity="0.95"/>
    <circle cx="88" cy="110" r="46" fill="none" stroke="#FFFFFF" stroke-width="1.5" opacity="0.35"/>
    <circle cx="88" cy="103" r="14" fill="none" stroke="#FFFFFF" stroke-width="2.5" opacity="0.6"/>
    <circle cx="68" cy="92" r="8" fill="none" stroke="#FFFFFF" stroke-width="2" opacity="0.45"/>
    <circle cx="110" cy="95" r="7" fill="none" stroke="#FFFFFF" stroke-width="2" opacity="0.45"/>
    <circle cx="72" cy="128" r="6" fill="none" stroke="#FFFFFF" stroke-width="1.8" opacity="0.35"/>
    <path d="M60 140 Q68 132 76 140" fill="none" stroke="#FFFFFF" stroke-width="2" stroke-linecap="round" opacity="0.4"/>
    <path d="M96 142 Q104 134 112 142" fill="none" stroke="#FFFFFF" stroke-width="2" stroke-linecap="round" opacity="0.4"/>
  </g>
</svg>
