<svg xmlns="http://www.w3.org/2000/svg" viewBox="0 0 1080 1080" width="1080" height="1080">
  <!-- Instagram Post — 1080x1080 square -->
  <defs>
    <linearGradient id="dbg" x1="0" y1="0" x2="1" y2="1">
      <stop offset="0%" stop-color="#FAFCFF"/><stop offset="100%" stop-color="#F0F7FF"/>
    </linearGradient>
    <linearGradient id="accent" x1="0" y1="0" x2="1" y2="0">
      <stop offset="0%" stop-color="#64B5F6"/><stop offset="100%" stop-color="#7CC444"/>
    </linearGradient>
    <radialGradient id="ga" cx="30%" cy="25%" r="65%">
      <stop offset="0%" stop-color="#FFFFFF" stop-opacity="0.22"/><stop offset="25%" stop-color="#64B5F6" stop-opacity="0.14"/>
      <stop offset="65%" stop-color="#7CC444" stop-opacity="0.06"/><stop offset="100%" stop-color="#7CC444" stop-opacity="0.02"/>
    </radialGradient>
    <radialGradient id="gb" cx="30%" cy="25%" r="65%">
      <stop offset="0%" stop-color="#FFFFFF" stop-opacity="0.2"/><stop offset="30%" stop-color="#64B5F6" stop-opacity="0.12"/>
      <stop offset="100%" stop-color="#64B5F6" stop-opacity="0.02"/>
    </radialGradient>
    <radialGradient id="gg" cx="30%" cy="25%" r="65%">
      <stop offset="0%" stop-color="#FFFFFF" stop-opacity="0.2"/><stop offset="30%" stop-color="#7CC444" stop-opacity="0.12"/>
      <stop offset="100%" stop-color="#7CC444" stop-opacity="0.02"/>
    </radialGradient>
    <linearGradient id="mark" x1="0" y1="0" x2="1" y2="1">
      <stop offset="0%" stop-color="#64B5F6"/><stop offset="100%" stop-color="#7CC444"/>
    </linearGradient>
  </defs>
  <rect width="1080" height="1080" fill="url(#dbg)"/>
  <rect width="1080" height="5" fill="url(#accent)"/>
  <rect y="1075" width="1080" height="5" fill="url(#accent)"/>

  <!-- Large bubbles -->
  <circle cx="110" cy="120" r="85" fill="url(#ga)" stroke="#64B5F6" stroke-width="2" stroke-opacity="0.3"/>
  <ellipse cx="78" cy="76" rx="28" ry="18" fill="#FFFFFF" opacity="0.18" transform="rotate(-22,78,76)"/>
  <circle cx="68" cy="64" r="7" fill="#FFFFFF" opacity="0.3"/>

  <circle cx="970" cy="130" r="75" fill="url(#gg)" stroke="#7CC444" stroke-width="2" stroke-opacity="0.3"/>
  <ellipse cx="944" cy="90" rx="24" ry="16" fill="#FFFFFF" opacity="0.16" transform="rotate(-18,944,90)"/>
  <circle cx="936" cy="80" r="6" fill="#FFFFFF" opacity="0.28"/>

  <circle cx="100" cy="920" r="70" fill="url(#gb)" stroke="#64B5F6" stroke-width="1.8" stroke-opacity="0.28"/>
  <ellipse cx="74" cy="884" rx="22" ry="14" fill="#FFFFFF" opacity="0.15" transform="rotate(-20,74,884)"/>
  <circle cx="66" cy="874" r="6" fill="#FFFFFF" opacity="0.25"/>

  <circle cx="980" cy="940" r="68" fill="url(#ga)" stroke="#7CC444" stroke-width="1.8" stroke-opacity="0.28"/>
  <ellipse cx="958" cy="906" rx="22" ry="14" fill="#FFFFFF" opacity="0.14" transform="rotate(-15,958,906)"/>
  <circle cx="950" cy="896" r="5.5" fill="#FFFFFF" opacity="0.24"/>

  <circle cx="920" cy="520" r="55" fill="url(#gb)" stroke="#64B5F6" stroke-width="1.5" stroke-opacity="0.25"/>
  <ellipse cx="900" cy="494" rx="18" ry="11" fill="#FFFFFF" opacity="0.12" transform="rotate(-18,900,494)"/>
  <circle cx="894" cy="488" r="5" fill="#FFFFFF" opacity="0.22"/>

  <circle cx="150" cy="540" r="50" fill="url(#gg)" stroke="#7CC444" stroke-width="1.5" stroke-opacity="0.25"/>
  <ellipse cx="132" cy="516" rx="16" ry="10" fill="#FFFFFF" opacity="0.12" transform="rotate(-20,132,516)"/>
  <circle cx="126" cy="510" r="4.5" fill="#FFFFFF" opacity="0.22"/>

  <!-- Medium bubbles -->
  <circle cx="300" cy="80" r="28" fill="url(#gb)" stroke="#64B5F6" stroke-width="1.2" stroke-opacity="0.22"/>
  <circle cx="780" cy="960" r="25" fill="url(#gg)" stroke="#7CC444" stroke-width="1" stroke-opacity="0.2"/>
  <circle cx="250" cy="960" r="22" fill="url(#ga)" stroke="#3BA0B5" stroke-width="1" stroke-opacity="0.2"/>
  <circle cx="820" cy="80" r="20" fill="url(#gb)" stroke="#64B5F6" stroke-width="0.9" stroke-opacity="0.18"/>
  <circle cx="540" cy="100" r="18" fill="url(#gg)" stroke="#7CC444" stroke-width="0.9" stroke-opacity="0.18"/>
  <circle cx="540" cy="980" r="16" fill="url(#gb)" stroke="#64B5F6" stroke-width="0.8" stroke-opacity="0.18"/>

  <!-- Icon mark with washer -->
  <rect x="370" y="260" width="340" height="340" rx="75" fill="url(#mark)"/>
  <g transform="translate(395,278) scale(1.65)">
    <rect x="20" y="12" width="136" height="160" rx="16" fill="none" stroke="#FFFFFF" stroke-width="3.5" stroke-linecap="round" stroke-linejoin="round" opacity="0.95"/>
    <line x1="20" y1="44" x2="156" y2="44" stroke="#FFFFFF" stroke-width="2.5" stroke-linecap="round" opacity="0.8"/>
    <circle cx="52" cy="29" r="5" fill="none" stroke="#FFFFFF" stroke-width="2.2" opacity="0.7"/>
    <circle cx="88" cy="29" r="5" fill="none" stroke="#FFFFFF" stroke-width="2.2" opacity="0.7"/>
    <circle cx="124" cy="29" r="5" fill="none" stroke="#FFFFFF" stroke-width="2.2" opacity="0.7"/>
    <circle cx="88" cy="110" r="52" fill="none" stroke="#FFFFFF" stroke-width="3.5" stroke-linecap="round" opacity="0.95"/>
    <circle cx="88" cy="110" r="46" fill="none" stroke="#FFFFFF" stroke-width="1.5" opacity="0.35"/>
    <circle cx="88" cy="103" r="14" fill="none" stroke="#FFFFFF" stroke-width="2.5" opacity="0.6"/>
    <circle cx="68" cy="92" r="8" fill="none" stroke="#FFFFFF" stroke-width="2" opacity="0.45"/>
    <circle cx="110" cy="95" r="7" fill="none" stroke="#FFFFFF" stroke-width="2" opacity="0.45"/>
    <circle cx="72" cy="128" r="6" fill="none" stroke="#FFFFFF" stroke-width="1.8" opacity="0.35"/>
    <path d="M60 140 Q68 132 76 140" fill="none" stroke="#FFFFFF" stroke-width="2" stroke-linecap="round" opacity="0.4"/>
    <path d="M96 142 Q104 134 112 142" fill="none" stroke="#FFFFFF" stroke-width="2" stroke-linecap="round" opacity="0.4"/>
  </g>

  <!-- Wordmark -->
  <text x="490" y="720" text-anchor="end" font-family="'Nunito', sans-serif" font-weight="900" font-size="120" fill="#1B3A4B">Wash</text>
  <text x="498" y="720" text-anchor="start" font-family="'Nunito', sans-serif" font-weight="900" font-size="120" fill="#7CC444">NFold</text>
  <text x="540" y="780" text-anchor="middle" font-family="'Nunito', sans-serif" font-weight="400" font-size="30" letter-spacing="16" fill="#6B7280">LAUNDRY</text>
  <text x="540" y="840" text-anchor="middle" font-family="'Nunito', sans-serif" font-weight="700" font-size="22" letter-spacing="5" fill="#3BA0B5">PICKUP &amp; DELIVERY · MAURICE, LA</text>
  <text x="540" y="890" text-anchor="middle" font-family="'Nunito', sans-serif" font-weight="800" font-size="18" letter-spacing="4" fill="#9CB8C8">DIRTY CLOTHES OUT · CLEAN CLOTHES IN</text>
</svg>
