<svg xmlns="http://www.w3.org/2000/svg" viewBox="0 0 512 512" width="512" height="512">
  <!-- WNF Square Mark — Washer icon with glass bubbles -->
  <!-- FOR: QR code center, app icon, profile pic -->
  <defs>
    <linearGradient id="mark" x1="0" y1="0" x2="1" y2="1">
      <stop offset="0%" stop-color="#64B5F6"/><stop offset="100%" stop-color="#7CC444"/>
    </linearGradient>
    <radialGradient id="ga" cx="30%" cy="25%" r="65%">
      <stop offset="0%" stop-color="#FFFFFF" stop-opacity="0.22"/><stop offset="25%" stop-color="#64B5F6" stop-opacity="0.14"/>
      <stop offset="65%" stop-color="#7CC444" stop-opacity="0.06"/><stop offset="100%" stop-color="#7CC444" stop-opacity="0.02"/>
    </radialGradient>
  </defs>

  <!-- Rounded square background -->
  <rect width="512" height="512" rx="110" fill="url(#mark)"/>

  <!-- Glass bubbles -->
  <circle cx="400" cy="80" r="50" fill="url(#ga)" stroke="#FFFFFF" stroke-width="2" stroke-opacity="0.3"/>
  <ellipse cx="382" cy="56" rx="16" ry="10" fill="#FFFFFF" opacity="0.2" transform="rotate(-20,382,56)"/>
  <circle cx="376" cy="50" r="5" fill="#FFFFFF" opacity="0.3"/>

  <circle cx="100" cy="410" r="45" fill="url(#ga)" stroke="#FFFFFF" stroke-width="1.8" stroke-opacity="0.28"/>
  <ellipse cx="84" cy="388" rx="14" ry="9" fill="#FFFFFF" opacity="0.18" transform="rotate(-18,84,388)"/>
  <circle cx="78" cy="382" r="4.5" fill="#FFFFFF" opacity="0.28"/>

  <circle cx="420" cy="420" r="38" fill="url(#ga)" stroke="#FFFFFF" stroke-width="1.5" stroke-opacity="0.25"/>
  <circle cx="90" cy="100" r="28" fill="url(#ga)" stroke="#FFFFFF" stroke-width="1.2" stroke-opacity="0.22"/>
  <circle cx="440" cy="250" r="22" fill="url(#ga)" stroke="#FFFFFF" stroke-width="1" stroke-opacity="0.2"/>

  <!-- ═══ WASHER ICON (centered) ═══ -->
  <g transform="translate(156,106) scale(1.5)">
    <!-- Washer body -->
    <rect x="20" y="12" width="136" height="160" rx="16" fill="none" stroke="#FFFFFF" stroke-width="3.5" stroke-linecap="round" stroke-linejoin="round" opacity="0.95"/>

    <!-- Control panel divider -->
    <line x1="20" y1="44" x2="156" y2="44" stroke="#FFFFFF" stroke-width="2.5" stroke-linecap="round" opacity="0.8"/>

    <!-- Control knobs -->
    <circle cx="52" cy="29" r="5" fill="none" stroke="#FFFFFF" stroke-width="2.2" opacity="0.7"/>
    <circle cx="88" cy="29" r="5" fill="none" stroke="#FFFFFF" stroke-width="2.2" opacity="0.7"/>
    <circle cx="124" cy="29" r="5" fill="none" stroke="#FFFFFF" stroke-width="2.2" opacity="0.7"/>

    <!-- Door window — large circle -->
    <circle cx="88" cy="110" r="52" fill="none" stroke="#FFFFFF" stroke-width="3.5" stroke-linecap="round" opacity="0.95"/>
    <!-- Inner rim -->
    <circle cx="88" cy="110" r="46" fill="none" stroke="#FFFFFF" stroke-width="1.5" opacity="0.35"/>

    <!-- Bubbles inside door -->
    <circle cx="88" cy="103" r="14" fill="none" stroke="#FFFFFF" stroke-width="2.5" opacity="0.6"/>
    <circle cx="68" cy="92" r="8" fill="none" stroke="#FFFFFF" stroke-width="2" opacity="0.45"/>
    <circle cx="110" cy="95" r="7" fill="none" stroke="#FFFFFF" stroke-width="2" opacity="0.45"/>
    <circle cx="72" cy="128" r="6" fill="none" stroke="#FFFFFF" stroke-width="1.8" opacity="0.35"/>
    <circle cx="106" cy="125" r="5" fill="none" stroke="#FFFFFF" stroke-width="1.5" opacity="0.3"/>

    <!-- Water motion curves -->
    <path d="M60 140 Q68 132 76 140" fill="none" stroke="#FFFFFF" stroke-width="2" stroke-linecap="round" opacity="0.4"/>
    <path d="M96 142 Q104 134 112 142" fill="none" stroke="#FFFFFF" stroke-width="2" stroke-linecap="round" opacity="0.4"/>
  </g>
</svg>
